<svg id="svg" version="1.1" xmlns="http://www.w3.org/2000/svg" xmlns:xlink="http://www.w3.org/1999/xlink" width="400" height="400" viewBox="0, 0, 400,400"><g id="svgg"><path id="path0" d="M117.724 187.792 C 117.462 188.080,117.353 188.420,117.481 188.548 C 117.813 188.879,116.856 189.185,115.024 189.334 L 113.448 189.462 113.299 191.603 C 113.192 193.139,112.874 194.072,112.175 194.903 C 110.660 196.703,110.662 209.300,112.178 211.101 C 112.858 211.909,113.186 212.833,113.253 214.132 C 113.306 215.159,113.506 216.000,113.698 216.000 C 113.890 216.000,113.949 216.160,113.828 216.355 C 113.707 216.550,113.832 216.702,114.104 216.692 C 116.609 216.602,117.200 216.813,117.200 217.800 L 117.200 218.800 126.000 218.800 L 134.800 218.800 134.800 217.443 C 134.800 216.579,135.028 215.998,135.428 215.845 C 135.860 215.679,135.971 215.339,135.785 214.752 C 135.603 214.178,135.659 213.989,135.957 214.174 C 136.391 214.442,136.500 214.206,136.500 213.000 C 136.500 211.795,136.391 211.558,135.960 211.825 C 135.669 212.005,135.682 211.793,136.000 211.200 C 136.264 210.707,136.302 210.413,136.085 210.547 C 135.519 210.897,134.893 209.994,134.735 208.600 L 134.600 207.400 129.700 207.288 L 124.800 207.175 124.800 202.988 L 124.800 198.800 129.776 198.800 L 134.752 198.800 134.909 197.300 L 135.066 195.800 135.133 197.300 L 135.200 198.800 138.200 198.800 L 141.200 198.800 141.206 207.300 C 141.212 215.865,141.307 216.600,142.400 216.600 C 142.759 216.600,143.051 217.048,143.128 217.716 L 143.256 218.833 149.015 218.778 C 152.183 218.748,154.759 218.605,154.740 218.462 C 154.721 218.318,154.727 213.835,154.753 208.500 L 154.800 198.800 157.800 198.800 L 160.800 198.800 160.800 192.994 L 160.800 187.189 148.100 187.294 L 135.400 187.400 135.153 188.800 L 134.905 190.200 134.853 188.687 L 134.800 187.173 126.500 187.222 C 120.229 187.258,118.084 187.397,117.724 187.792 M161.998 188.002 C 161.206 188.794,161.183 189.241,161.210 203.573 C 161.238 218.814,161.327 219.638,162.810 218.269 C 163.201 217.908,163.252 217.915,163.035 218.300 C 162.816 218.688,163.827 218.800,167.546 218.800 C 174.047 218.800,174.648 218.295,174.771 212.732 C 174.868 208.291,174.264 208.890,178.801 208.732 L 182.600 208.600 182.677 204.386 C 182.720 201.991,182.574 199.919,182.339 199.586 C 182.011 199.123,181.974 199.167,182.163 199.800 C 182.373 200.502,182.340 200.522,181.901 199.963 C 181.530 199.492,180.568 199.303,178.204 199.234 C 173.141 199.088,174.163 198.800,179.744 198.800 L 184.822 198.800 184.711 193.100 L 184.600 187.400 173.706 187.294 C 163.205 187.191,162.784 187.216,161.998 188.002 M62.800 197.449 C 62.800 197.980,62.909 198.008,63.400 197.600 C 63.730 197.326,64.000 197.034,64.000 196.951 C 64.000 196.868,63.730 196.800,63.400 196.800 C 63.070 196.800,62.800 197.092,62.800 197.449 M284.808 222.259 C 283.931 223.091,283.435 223.200,280.508 223.200 C 277.271 223.200,277.200 223.221,277.200 224.172 C 277.200 224.876,276.951 225.180,276.300 225.272 C 275.410 225.399,275.398 225.485,275.200 233.200 C 275.055 238.851,274.890 240.759,274.600 240.124 C 274.380 239.642,274.020 239.282,273.800 239.324 C 273.580 239.366,273.340 238.980,273.268 238.466 C 273.195 237.952,272.745 237.084,272.268 236.536 C 271.504 235.659,271.376 234.934,271.200 230.470 C 271.009 225.631,270.960 225.394,270.125 225.275 C 269.579 225.198,269.202 224.821,269.125 224.275 C 269.000 223.402,268.971 223.400,258.100 223.294 L 247.200 223.187 247.200 237.994 C 247.200 248.148,247.333 252.800,247.624 252.800 C 247.857 252.800,247.933 252.984,247.794 253.210 C 247.655 253.435,247.779 253.570,248.070 253.510 C 248.362 253.449,248.546 253.651,248.480 253.959 C 248.382 254.417,248.529 254.407,249.292 253.907 C 249.991 253.450,250.620 253.380,251.812 253.630 L 253.400 253.963 251.967 253.870 C 251.178 253.818,250.535 253.962,250.536 254.188 C 250.543 255.132,255.262 254.774,256.203 253.758 C 256.708 253.214,257.547 252.800,258.146 252.800 L 259.200 252.800 259.200 248.800 L 259.200 244.800 260.200 244.800 C 261.199 244.800,261.200 244.803,261.200 248.749 L 261.200 252.698 262.819 252.957 C 263.709 253.099,264.338 253.376,264.217 253.573 C 264.095 253.769,264.492 253.874,265.098 253.807 C 266.333 253.668,267.098 253.969,266.481 254.350 C 266.258 254.488,266.936 254.600,267.987 254.600 C 269.181 254.600,269.836 254.439,269.734 254.172 C 269.643 253.936,268.991 253.793,268.285 253.854 L 267.000 253.965 268.200 253.654 C 268.970 253.455,269.780 253.529,270.460 253.861 C 271.377 254.309,271.592 254.286,272.060 253.689 C 272.559 253.052,272.539 253.046,271.800 253.600 C 271.058 254.156,271.040 254.149,271.549 253.500 C 271.872 253.088,272.636 252.800,273.406 252.800 C 274.467 252.800,274.761 252.612,274.964 251.800 C 275.148 251.069,275.483 250.800,276.208 250.800 C 276.999 250.800,277.200 251.002,277.200 251.800 C 277.200 252.733,277.333 252.800,279.200 252.800 C 281.067 252.800,281.200 252.867,281.200 253.800 L 281.200 254.800 287.957 254.800 L 294.713 254.800 294.964 253.800 C 295.190 252.901,295.416 252.800,297.208 252.800 C 299.066 252.800,299.200 252.733,299.200 251.800 C 299.200 250.998,299.400 250.800,300.206 250.800 L 301.211 250.800 301.106 238.300 L 301.000 225.800 300.083 225.400 C 299.579 225.180,299.065 224.595,298.940 224.100 C 298.728 223.259,298.500 223.200,295.453 223.200 C 292.603 223.200,292.066 223.084,291.196 222.279 C 290.202 221.359,286.094 220.781,286.621 221.634 C 286.745 221.835,286.672 222.000,286.457 222.000 C 286.242 222.000,286.007 221.846,285.933 221.659 C 285.860 221.471,285.354 221.741,284.808 222.259 M113.200 237.911 C 113.200 250.578,113.287 252.746,113.823 253.511 C 114.372 254.295,116.332 254.862,115.862 254.100 C 115.760 253.935,116.515 253.777,117.538 253.749 C 118.603 253.719,118.886 253.775,118.200 253.879 C 115.974 254.217,116.430 254.600,119.057 254.600 C 121.279 254.600,121.774 254.467,122.397 253.700 C 122.799 253.205,123.504 252.800,123.964 252.800 C 124.738 252.800,124.800 252.576,124.800 249.800 L 124.800 246.800 127.700 246.795 C 131.272 246.788,132.271 246.538,132.519 245.587 C 132.668 245.020,133.165 244.819,134.656 244.724 L 136.600 244.600 136.722 242.700 C 136.839 240.873,137.128 240.551,138.478 240.745 C 138.631 240.767,138.754 238.044,138.752 234.693 C 138.748 228.780,138.497 227.404,137.400 227.273 C 137.180 227.246,136.943 226.769,136.873 226.212 C 136.777 225.441,136.515 225.200,135.773 225.200 C 135.002 225.200,134.800 224.993,134.800 224.200 L 134.800 223.200 124.000 223.200 L 113.200 223.200 113.200 237.911 M139.200 238.000 L 139.200 252.800 140.418 252.800 C 141.263 252.800,141.599 252.975,141.518 253.374 C 141.394 253.979,141.665 254.096,142.496 253.796 C 143.374 253.478,159.533 253.386,159.339 253.700 C 159.236 253.865,155.484 254.000,151.000 254.000 C 146.516 254.000,142.764 254.135,142.663 254.300 C 142.112 255.196,160.957 254.607,161.864 253.700 C 162.359 253.205,163.228 252.800,163.795 252.800 L 164.826 252.800 164.784 244.232 C 164.736 234.189,165.454 235.200,158.367 235.200 L 153.200 235.200 153.200 239.200 L 153.200 243.200 152.000 243.200 L 150.800 243.200 150.800 233.200 L 150.800 223.200 145.000 223.200 L 139.200 223.200 139.200 238.000 M169.479 223.529 C 169.406 223.678,169.296 224.520,169.234 225.400 C 169.113 227.131,168.899 227.706,168.472 227.449 C 167.662 226.959,167.200 228.238,167.200 230.972 C 167.200 232.920,167.107 233.158,166.300 233.272 L 165.400 233.400 165.293 243.100 L 165.186 252.800 166.436 252.800 C 167.370 252.800,167.629 252.948,167.460 253.387 C 167.197 254.074,167.827 254.604,168.196 254.007 C 168.334 253.783,169.112 253.627,169.924 253.660 C 171.276 253.715,171.299 253.734,170.200 253.891 C 168.044 254.198,168.401 254.599,170.884 254.658 C 172.977 254.709,173.439 254.584,174.203 253.758 C 174.692 253.231,175.476 252.800,175.946 252.800 C 176.742 252.800,176.800 252.597,176.800 249.800 L 176.800 246.800 178.000 246.800 L 179.200 246.800 179.247 249.500 C 179.273 250.985,179.258 252.380,179.214 252.600 C 179.170 252.820,179.254 252.880,179.401 252.733 C 179.808 252.326,181.989 253.205,181.888 253.735 C 181.799 254.206,182.598 254.239,184.383 253.836 C 184.924 253.714,185.959 253.574,186.683 253.525 C 187.408 253.476,188.000 253.293,188.000 253.118 C 188.000 252.943,189.080 252.800,190.400 252.800 L 192.800 252.800 192.860 245.700 C 192.893 241.795,192.995 239.095,193.087 239.700 C 193.216 240.553,193.472 240.800,194.227 240.800 C 194.998 240.800,195.200 241.007,195.200 241.800 C 195.200 242.543,195.412 242.800,196.024 242.800 C 196.477 242.800,196.736 242.980,196.600 243.200 C 196.464 243.420,196.588 243.603,196.876 243.606 C 197.293 243.611,197.290 243.682,196.857 243.956 C 196.479 244.196,196.449 244.383,196.757 244.574 C 197.001 244.724,197.200 245.287,197.200 245.824 C 197.200 246.598,197.406 246.800,198.200 246.800 C 199.178 246.800,199.200 246.867,199.200 249.800 L 199.200 252.800 200.443 252.800 C 201.371 252.800,201.629 252.949,201.460 253.387 C 201.197 254.074,201.827 254.604,202.196 254.007 C 202.519 253.484,207.314 253.474,207.834 253.994 C 209.056 255.216,210.786 252.705,210.793 249.700 C 210.800 246.789,210.908 246.591,212.415 246.724 C 212.533 246.735,212.665 246.317,212.709 245.796 C 212.752 245.276,213.240 244.396,213.793 243.843 C 214.347 243.289,214.800 242.378,214.800 241.818 C 214.800 240.999,214.995 240.800,215.800 240.800 C 216.550 240.800,216.800 240.589,216.800 239.958 C 216.800 239.494,217.254 238.758,217.809 238.321 L 218.818 237.528 218.709 230.464 L 218.600 223.400 212.900 223.289 L 207.200 223.178 207.200 227.207 C 207.200 230.941,207.129 231.308,206.227 232.209 C 205.693 232.744,205.180 233.681,205.087 234.291 L 204.920 235.400 204.860 234.300 C 204.811 233.405,204.611 233.200,203.785 233.200 C 202.976 233.200,202.785 233.017,202.847 232.300 C 202.890 231.805,202.896 229.550,202.862 227.289 L 202.800 223.178 197.100 223.289 L 191.400 223.400 191.186 230.400 C 191.068 234.250,190.933 236.043,190.886 234.385 C 190.807 231.633,190.726 231.365,189.955 231.307 C 188.825 231.221,188.861 231.303,188.754 228.649 C 188.666 226.466,188.085 225.200,187.171 225.200 C 186.967 225.200,186.800 224.744,186.800 224.187 L 186.800 223.174 178.206 223.216 C 173.479 223.239,169.552 223.380,169.479 223.529 M221.900 224.033 C 221.515 224.455,221.200 224.989,221.200 225.219 C 221.200 225.450,220.747 226.058,220.194 226.571 L 219.187 227.503 219.294 238.852 C 219.400 250.190,219.401 250.200,220.300 250.595 C 220.852 250.837,221.200 251.340,221.200 251.895 C 221.200 252.763,221.337 252.800,224.551 252.800 C 227.813 252.800,229.270 253.323,228.497 254.216 C 228.333 254.404,228.650 254.297,229.200 253.979 C 229.997 253.518,231.406 253.441,236.139 253.600 C 241.535 253.782,243.278 253.620,241.902 253.066 C 241.626 252.954,242.165 252.849,243.100 252.832 L 244.800 252.800 244.800 244.000 L 244.800 235.200 239.000 235.200 L 233.200 235.200 233.200 239.200 L 233.200 243.200 232.000 243.200 L 230.800 243.200 230.800 238.000 L 230.800 232.800 236.800 232.800 L 242.800 232.800 242.800 228.000 L 242.800 223.200 232.700 223.233 C 223.280 223.264,222.553 223.318,221.900 224.033 M303.210 237.000 L 303.239 250.800 304.220 250.800 C 304.999 250.800,305.200 251.005,305.200 251.800 C 305.200 252.733,305.333 252.800,307.200 252.800 C 309.009 252.800,309.268 252.943,309.170 253.884 C 309.027 255.265,321.476 255.190,323.127 253.800 C 323.781 253.250,324.798 252.800,325.389 252.800 C 327.184 252.800,328.800 250.825,328.800 248.631 C 328.800 246.847,329.077 246.538,330.486 246.748 C 330.643 246.771,330.772 242.016,330.772 236.180 C 330.773 229.448,330.632 225.656,330.387 225.808 C 330.174 225.940,330.000 225.587,330.000 225.024 C 330.000 224.380,329.777 224.000,329.400 224.000 C 329.070 224.000,328.800 223.820,328.800 223.600 C 328.800 223.352,326.600 223.200,323.000 223.200 L 317.200 223.200 317.200 233.200 L 317.200 243.200 316.000 243.200 L 314.800 243.200 314.800 233.200 L 314.800 223.200 308.991 223.200 L 303.181 223.200 303.210 237.000 M331.200 238.000 L 331.200 252.800 332.387 252.800 C 333.240 252.800,333.514 252.958,333.360 253.360 C 333.242 253.667,333.383 254.072,333.673 254.260 C 334.186 254.591,339.691 254.762,339.369 254.437 C 339.280 254.347,339.430 253.987,339.703 253.637 C 340.139 253.078,340.117 253.065,339.524 253.529 C 339.152 253.820,338.342 253.982,337.724 253.889 C 336.629 253.724,336.633 253.718,337.876 253.660 C 338.578 253.627,339.264 253.420,339.400 253.200 C 339.536 252.980,340.357 252.800,341.224 252.800 L 342.800 252.800 342.860 247.700 C 342.893 244.895,342.995 243.095,343.087 243.700 C 343.214 244.543,343.474 244.800,344.199 244.800 C 344.875 244.800,345.181 245.057,345.272 245.700 C 345.354 246.278,345.722 246.646,346.300 246.728 C 347.138 246.847,347.200 247.053,347.200 249.739 C 347.200 252.895,347.861 254.400,349.246 254.400 C 349.687 254.400,349.964 254.265,349.862 254.100 C 349.760 253.935,350.515 253.777,351.538 253.749 C 352.603 253.719,352.886 253.775,352.200 253.879 C 350.052 254.205,350.397 254.599,352.884 254.658 C 354.977 254.709,355.439 254.584,356.203 253.758 C 356.692 253.231,357.476 252.800,357.946 252.800 L 358.800 252.800 358.800 238.000 L 358.800 223.200 353.000 223.200 L 347.200 223.200 347.170 226.500 C 347.142 229.463,347.091 229.676,346.670 228.591 C 346.411 227.927,345.930 227.389,345.600 227.396 C 345.270 227.404,344.909 226.958,344.797 226.405 C 344.665 225.748,344.284 225.356,343.697 225.272 C 343.049 225.180,342.800 224.875,342.800 224.172 L 342.800 223.200 337.000 223.200 L 331.200 223.200 331.200 238.000 M361.200 237.989 C 361.200 248.147,361.333 252.800,361.624 252.800 C 361.857 252.800,361.933 252.984,361.794 253.210 C 361.655 253.435,361.779 253.570,362.070 253.510 C 362.362 253.449,362.552 253.633,362.494 253.917 C 362.411 254.324,362.572 254.336,363.247 253.975 C 363.790 253.685,366.289 253.526,370.052 253.543 C 373.618 253.560,376.000 253.416,376.000 253.185 C 376.000 252.962,377.846 252.800,380.400 252.800 L 384.800 252.800 384.800 251.800 C 384.800 251.000,385.000 250.800,385.800 250.800 L 386.800 250.800 386.800 238.027 L 386.800 225.253 385.700 225.127 C 384.943 225.039,384.617 224.783,384.655 224.304 C 384.685 223.922,384.550 223.707,384.355 223.828 C 384.160 223.949,384.000 223.867,384.000 223.647 C 384.000 223.389,379.923 223.234,372.600 223.212 L 361.200 223.179 361.200 237.989 M126.600 233.200 C 126.464 233.420,126.588 233.614,126.876 233.632 C 127.300 233.657,127.301 233.703,126.883 233.870 C 126.487 234.030,126.475 234.208,126.832 234.639 C 127.215 235.100,127.075 235.200,126.049 235.200 C 124.928 235.200,124.800 235.077,124.800 234.000 C 124.800 232.979,124.953 232.800,125.824 232.800 C 126.404 232.800,126.740 232.973,126.600 233.200 M289.200 238.000 L 289.200 243.200 288.200 243.200 L 287.200 243.200 287.200 238.000 L 287.200 232.800 288.200 232.800 L 289.200 232.800 289.200 238.000 M375.200 238.000 L 375.200 243.200 374.000 243.200 L 372.800 243.200 372.800 238.000 L 372.800 232.800 374.000 232.800 L 375.200 232.800 375.200 238.000 M179.200 236.000 C 179.200 237.097,179.088 237.196,177.900 237.153 L 176.600 237.105 177.777 236.853 C 178.425 236.714,178.920 236.465,178.877 236.300 C 178.727 235.718,178.802 234.800,179.000 234.800 C 179.110 234.800,179.200 235.340,179.200 236.000 M187.152 253.782 C 187.052 253.882,186.302 254.009,185.485 254.064 C 183.326 254.209,183.665 254.600,185.949 254.600 C 187.344 254.600,187.844 254.458,187.706 254.100 C 187.496 253.552,187.423 253.510,187.152 253.782 M230.533 254.200 C 230.533 254.447,232.638 254.600,236.047 254.600 C 239.079 254.600,241.434 254.475,241.280 254.322 C 240.819 253.865,230.532 253.748,230.533 254.200 M364.534 254.200 C 364.534 254.448,366.695 254.600,370.216 254.600 C 373.841 254.600,375.843 254.455,375.745 254.200 C 375.653 253.960,373.379 253.800,370.062 253.800 C 366.643 253.800,364.533 253.953,364.534 254.200 M202.662 254.300 C 202.560 254.465,203.612 254.600,205.000 254.600 C 206.388 254.600,207.440 254.465,207.338 254.300 C 207.236 254.135,206.184 254.000,205.000 254.000 C 203.816 254.000,202.764 254.135,202.662 254.300 " stroke="none" fill="#34baec" fill-rule="evenodd"></path><path id="path1" d="M39.467 105.467 C 39.320 105.613,39.200 106.063,39.200 106.467 C 39.200 107.129,38.812 107.200,35.200 107.200 L 31.200 107.200 31.200 108.200 C 31.200 109.000,31.000 109.200,30.200 109.200 C 29.260 109.200,29.200 109.326,29.200 111.304 C 29.200 112.974,29.035 113.510,28.400 113.907 C 27.365 114.554,27.390 115.153,28.500 116.308 C 30.734 118.630,31.076 119.044,31.332 119.738 C 31.482 120.144,31.953 120.567,32.380 120.679 C 32.806 120.790,33.210 121.268,33.278 121.741 C 33.354 122.279,33.737 122.648,34.300 122.728 C 34.951 122.820,35.200 123.124,35.200 123.828 C 35.200 124.598,35.408 124.800,36.200 124.800 L 37.200 124.800 37.200 129.000 L 37.200 133.200 36.200 133.200 C 35.400 133.200,35.200 133.400,35.200 134.200 C 35.200 135.000,35.000 135.200,34.200 135.200 C 33.400 135.200,33.200 135.400,33.200 136.200 C 33.200 137.133,33.067 137.200,31.200 137.200 C 29.338 137.200,29.200 137.269,29.200 138.191 L 29.200 139.181 22.300 139.291 C 15.545 139.398,15.397 139.418,15.275 140.275 C 15.198 140.821,14.821 141.198,14.275 141.275 C 13.403 141.400,13.400 141.429,13.400 151.000 L 13.400 160.600 14.300 160.728 C 15.705 160.927,15.705 169.073,14.300 169.272 C 12.806 169.484,12.712 177.802,14.188 179.188 C 15.188 180.128,15.200 180.214,15.200 186.470 L 15.200 192.800 16.200 192.800 C 17.178 192.800,17.200 192.867,17.200 195.800 C 17.200 198.733,17.222 198.800,18.200 198.800 C 19.133 198.800,19.200 198.933,19.200 200.800 C 19.200 202.667,19.267 202.800,20.200 202.800 C 21.133 202.800,21.200 202.933,21.200 204.800 C 21.200 206.667,21.267 206.800,22.200 206.800 C 22.950 206.800,23.200 207.011,23.200 207.642 C 23.200 208.106,23.639 208.830,24.175 209.252 C 24.770 209.720,25.199 210.523,25.275 211.310 C 25.371 212.296,25.612 212.630,26.300 212.728 C 26.951 212.820,27.200 213.124,27.200 213.828 C 27.200 214.598,27.408 214.800,28.200 214.800 C 29.000 214.800,29.200 215.000,29.200 215.800 C 29.200 216.592,29.402 216.800,30.172 216.800 C 30.876 216.800,31.180 217.049,31.272 217.700 C 31.355 218.282,31.722 218.646,32.311 218.729 C 32.812 218.800,33.659 219.295,34.193 219.829 C 34.727 220.363,35.622 220.800,36.182 220.800 C 37.001 220.800,37.200 220.995,37.200 221.800 C 37.200 222.600,37.400 222.800,38.200 222.800 C 38.993 222.800,39.200 223.002,39.200 223.773 C 39.200 224.528,39.447 224.784,40.300 224.913 L 41.400 225.080 40.300 225.140 L 39.200 225.200 39.200 230.571 C 39.200 235.824,39.178 235.959,38.200 236.729 C 36.655 237.944,36.655 246.733,38.200 248.165 C 39.133 249.030,39.200 249.349,39.200 252.946 C 39.200 256.790,39.203 256.800,40.200 256.800 C 41.133 256.800,41.200 256.933,41.200 258.800 C 41.200 260.667,41.267 260.800,42.200 260.800 C 43.133 260.800,43.200 260.933,43.200 262.800 C 43.200 264.667,43.267 264.800,44.200 264.800 C 45.000 264.800,45.200 265.000,45.200 265.800 C 45.200 266.600,45.400 266.800,46.200 266.800 C 47.000 266.800,47.200 267.000,47.200 267.800 C 47.200 268.572,47.406 268.800,48.105 268.800 C 48.660 268.800,49.163 269.148,49.405 269.700 C 50.052 271.175,58.356 271.280,59.805 269.831 C 61.273 268.363,61.270 265.200,59.800 265.200 L 58.800 265.200 58.800 258.000 L 58.800 250.800 59.800 250.800 C 60.733 250.800,60.800 250.667,60.800 248.800 C 60.800 246.933,60.867 246.800,61.800 246.800 C 62.674 246.800,62.800 246.625,62.800 245.419 C 62.800 244.378,63.058 243.860,63.849 243.319 C 64.425 242.923,65.334 242.195,65.867 241.700 C 66.400 241.205,67.278 240.800,67.818 240.800 C 68.593 240.800,68.800 240.594,68.800 239.822 C 68.800 238.939,68.985 238.832,70.700 238.722 C 72.321 238.618,72.619 238.468,72.728 237.700 C 72.847 236.859,73.050 236.800,75.828 236.800 C 78.726 236.800,78.800 236.775,78.800 235.807 L 78.800 234.813 89.500 234.707 C 100.165 234.600,100.201 234.597,100.595 233.700 C 100.837 233.148,101.340 232.800,101.895 232.800 C 102.701 232.800,102.800 232.603,102.800 231.000 L 102.800 229.200 100.800 229.200 C 98.933 229.200,98.800 229.133,98.800 228.200 C 98.800 227.400,98.600 227.200,97.800 227.200 C 97.000 227.200,96.800 227.000,96.800 226.200 C 96.800 225.400,96.600 225.200,95.800 225.200 C 95.000 225.200,94.800 225.000,94.800 224.200 C 94.800 223.400,94.600 223.200,93.800 223.200 C 93.000 223.200,92.800 223.000,92.800 222.200 C 92.800 221.400,92.600 221.200,91.800 221.200 C 91.000 221.200,90.800 221.000,90.800 220.200 C 90.800 219.400,90.600 219.200,89.800 219.200 C 89.000 219.200,88.800 219.000,88.800 218.200 C 88.800 217.400,88.600 217.200,87.800 217.200 C 87.250 217.200,86.800 217.033,86.800 216.829 C 86.800 216.043,85.488 215.200,84.266 215.200 C 83.326 215.200,82.886 214.963,82.595 214.300 C 82.233 213.474,81.898 213.391,78.526 213.285 C 75.079 213.178,74.844 213.116,74.726 212.285 C 74.603 211.423,74.446 211.397,68.700 211.289 L 62.800 211.179 62.800 210.189 C 62.800 209.411,62.595 209.200,61.837 209.200 C 60.184 209.200,60.075 201.308,61.718 200.587 C 62.390 200.292,62.629 199.801,62.722 198.521 L 62.844 196.842 64.722 196.721 C 66.321 196.618,66.619 196.466,66.728 195.700 C 66.813 195.103,67.130 194.800,67.670 194.800 C 68.118 194.800,68.839 194.350,69.271 193.800 C 70.006 192.867,70.296 192.800,73.629 192.800 C 77.171 192.800,77.200 192.808,77.200 193.800 C 77.200 194.733,77.333 194.800,79.200 194.800 C 81.067 194.800,81.200 194.867,81.200 195.800 C 81.200 196.777,81.268 196.800,84.182 196.800 C 86.829 196.800,87.276 196.912,88.164 197.800 C 89.048 198.684,89.502 198.800,92.087 198.800 C 94.735 198.800,95.047 198.885,95.405 199.700 C 95.856 200.727,97.366 201.093,98.222 200.382 C 98.689 199.995,98.800 198.450,98.800 192.373 L 98.800 184.844 100.700 184.722 C 102.310 184.619,102.619 184.465,102.726 183.717 C 102.840 182.913,103.108 182.824,105.726 182.717 C 108.360 182.610,108.611 182.525,108.728 181.700 C 108.847 180.859,109.050 180.800,111.828 180.800 C 114.717 180.800,114.800 180.773,114.800 179.818 C 114.800 178.875,114.919 178.830,117.700 178.718 C 120.361 178.610,120.611 178.526,120.728 177.700 C 120.841 176.906,121.087 176.800,122.828 176.800 C 124.665 176.800,124.800 176.731,124.800 175.800 C 124.800 174.867,124.933 174.800,126.800 174.800 C 128.667 174.800,128.800 174.733,128.800 173.800 C 128.800 173.000,129.000 172.800,129.800 172.800 C 130.600 172.800,130.800 172.600,130.800 171.800 C 130.800 170.867,130.933 170.800,132.800 170.800 C 134.667 170.800,134.800 170.733,134.800 169.800 C 134.800 169.000,135.000 168.800,135.800 168.800 C 136.600 168.800,136.800 168.600,136.800 167.800 C 136.800 167.000,137.000 166.800,137.800 166.800 C 138.600 166.800,138.800 166.600,138.800 165.800 C 138.800 165.000,139.000 164.800,139.800 164.800 C 140.600 164.800,140.800 164.600,140.800 163.800 C 140.800 163.000,141.000 162.800,141.800 162.800 C 142.600 162.800,142.800 162.600,142.800 161.800 C 142.800 161.000,143.000 160.800,143.800 160.800 C 144.600 160.800,144.800 160.600,144.800 159.800 C 144.800 159.000,145.000 158.800,145.800 158.800 C 146.733 158.800,146.800 158.667,146.800 156.800 C 146.800 154.933,146.867 154.800,147.800 154.800 C 148.733 154.800,148.800 154.667,148.800 152.800 C 148.800 150.933,148.867 150.800,149.800 150.800 C 150.733 150.800,150.800 150.667,150.800 148.800 C 150.800 146.933,150.867 146.800,151.800 146.800 C 152.778 146.800,152.800 146.733,152.800 143.800 C 152.800 142.150,152.967 140.800,153.171 140.800 C 154.529 140.800,154.800 139.564,154.800 133.371 L 154.800 127.200 152.800 127.200 C 150.933 127.200,150.800 127.133,150.800 126.200 C 150.800 125.222,150.733 125.200,147.800 125.200 C 144.867 125.200,144.800 125.178,144.800 124.200 C 144.800 123.200,144.798 123.200,140.828 123.200 C 137.013 123.200,136.851 123.164,136.728 122.300 C 136.604 121.430,136.438 121.396,131.700 121.288 C 129.005 121.226,126.800 121.014,126.800 120.816 C 126.800 119.464,125.558 119.200,119.199 119.200 C 112.925 119.200,112.854 119.190,112.728 118.300 L 112.600 117.400 103.323 117.293 L 94.047 117.185 93.266 116.193 L 92.485 115.200 84.670 115.200 C 76.871 115.200,76.855 115.198,76.728 114.300 C 76.611 113.474,76.361 113.390,73.700 113.282 C 70.919 113.170,70.800 113.125,70.800 112.182 C 70.800 111.271,70.656 111.200,68.818 111.200 C 67.238 111.200,66.634 110.998,65.836 110.200 C 64.948 109.312,64.502 109.200,61.846 109.200 C 59.049 109.200,58.847 109.142,58.728 108.300 C 58.603 107.420,58.470 107.397,52.835 107.289 C 47.286 107.181,47.036 107.140,46.154 106.189 C 45.248 105.210,40.261 104.672,39.467 105.467 M53.200 117.800 C 53.200 118.732,53.343 118.804,55.300 118.860 C 56.455 118.893,56.905 118.995,56.300 119.087 C 55.447 119.216,55.200 119.472,55.200 120.227 C 55.200 121.128,55.052 121.200,53.200 121.200 C 51.333 121.200,51.200 121.267,51.200 122.200 C 51.200 123.540,49.021 123.687,48.676 122.370 C 48.557 121.914,48.086 121.443,47.630 121.324 C 47.083 121.181,46.800 120.782,46.800 120.153 C 46.800 119.403,46.587 119.200,45.800 119.200 C 45.007 119.200,44.800 118.998,44.800 118.227 C 44.800 117.472,44.553 117.216,43.700 117.087 C 43.095 116.995,44.985 116.893,47.900 116.860 L 53.200 116.800 53.200 117.800 M101.200 125.800 L 101.200 126.800 107.182 126.800 C 113.029 126.800,113.186 126.822,114.164 127.800 C 115.122 128.758,115.369 128.800,120.087 128.800 C 124.809 128.800,125.026 128.837,125.405 129.700 C 125.775 130.543,126.104 130.613,130.600 130.809 C 134.954 130.999,135.140 131.036,132.600 131.209 C 130.188 131.374,129.746 131.523,129.410 132.288 C 129.045 133.121,128.736 133.183,124.410 133.288 C 120.087 133.393,119.776 133.455,119.411 134.287 C 119.054 135.100,118.707 135.183,115.211 135.287 C 111.623 135.393,111.393 135.452,111.274 136.285 C 111.156 137.116,110.921 137.178,107.474 137.285 C 104.102 137.391,103.767 137.474,103.405 138.300 C 102.709 139.886,98.800 139.631,98.800 138.000 C 98.800 136.987,98.956 136.800,99.800 136.800 C 100.719 136.800,100.800 136.653,100.800 135.000 C 100.800 133.397,100.701 133.200,99.895 133.200 C 99.340 133.200,98.837 132.852,98.595 132.300 C 98.224 131.454,97.930 131.393,93.700 131.287 L 89.200 131.174 89.200 132.160 C 89.200 132.779,88.916 133.236,88.437 133.388 C 86.941 133.863,86.929 136.133,88.420 136.606 C 89.054 136.808,89.200 137.222,89.200 138.827 C 89.200 140.665,89.268 140.800,90.200 140.800 C 91.044 140.800,91.200 140.987,91.200 142.000 L 91.200 143.200 88.200 143.200 C 85.282 143.200,85.200 143.227,85.200 144.182 C 85.200 145.115,85.068 145.169,82.500 145.282 C 80.143 145.385,79.750 145.514,79.405 146.300 C 79.068 147.069,78.705 147.200,76.905 147.200 L 74.800 147.200 74.800 143.182 L 74.800 139.163 72.100 139.282 L 69.400 139.400 69.187 143.400 L 68.975 147.400 68.787 144.400 C 68.616 141.660,68.522 141.389,67.700 141.272 C 67.049 141.180,66.800 140.876,66.800 140.172 C 66.800 139.254,66.670 139.200,64.480 139.200 C 61.142 139.200,61.200 139.051,61.200 147.680 L 61.200 155.200 60.023 155.200 C 58.924 155.200,58.838 155.087,58.723 153.500 C 58.628 152.187,58.395 151.710,57.700 151.405 C 57.140 151.160,56.800 150.661,56.800 150.086 C 56.800 148.190,53.140 145.200,50.819 145.200 C 49.709 145.200,48.800 145.033,48.800 144.829 C 48.800 143.681,47.448 143.198,44.071 143.140 C 42.162 143.107,41.095 143.005,41.700 142.913 C 42.553 142.784,42.800 142.528,42.800 141.773 C 42.800 140.955,42.994 140.800,44.019 140.800 C 44.806 140.800,45.567 140.445,46.165 139.800 C 46.675 139.250,47.476 138.800,47.946 138.800 C 48.590 138.800,48.800 138.554,48.800 137.800 C 48.800 137.000,49.000 136.800,49.800 136.800 C 50.594 136.800,50.800 136.599,50.800 135.822 C 50.800 134.939,50.985 134.832,52.700 134.722 C 54.321 134.618,54.619 134.468,54.728 133.700 C 54.813 133.103,55.130 132.800,55.670 132.800 C 56.118 132.800,56.839 132.350,57.271 131.800 C 57.841 131.076,58.442 130.800,59.447 130.800 C 60.396 130.800,61.154 130.483,61.836 129.800 C 62.634 129.002,63.238 128.800,64.818 128.800 C 66.665 128.800,66.800 128.732,66.800 127.800 L 66.800 126.800 70.800 126.800 L 74.800 126.800 74.800 125.800 L 74.800 124.800 88.000 124.800 L 101.200 124.800 101.200 125.800 M145.200 140.000 C 145.200 143.147,145.183 143.200,144.200 143.200 C 143.267 143.200,143.200 143.333,143.200 145.200 C 143.200 147.067,143.133 147.200,142.200 147.200 C 141.328 147.200,141.200 147.375,141.200 148.571 C 141.200 149.557,140.919 150.163,140.200 150.729 C 139.650 151.161,139.200 151.894,139.200 152.358 C 139.200 152.989,138.950 153.200,138.200 153.200 C 137.400 153.200,137.200 153.400,137.200 154.200 C 137.200 155.000,137.000 155.200,136.200 155.200 C 135.400 155.200,135.200 155.400,135.200 156.200 C 135.200 157.005,135.001 157.200,134.182 157.200 C 133.622 157.200,132.714 157.650,132.164 158.200 C 131.614 158.750,130.722 159.200,130.182 159.200 C 129.401 159.200,129.200 159.405,129.200 160.200 C 129.200 161.000,129.000 161.200,128.200 161.200 C 127.400 161.200,127.200 161.400,127.200 162.200 C 127.200 163.133,127.067 163.200,125.200 163.200 C 123.333 163.200,123.200 163.267,123.200 164.200 C 123.200 165.044,123.013 165.200,122.000 165.200 C 120.827 165.200,120.800 165.156,120.800 163.200 C 120.800 161.333,120.733 161.200,119.800 161.200 C 118.867 161.200,118.800 161.067,118.800 159.200 C 118.800 157.333,118.733 157.200,117.800 157.200 C 117.000 157.200,116.800 157.000,116.800 156.200 C 116.800 155.400,116.600 155.200,115.800 155.200 C 114.995 155.200,114.800 155.001,114.800 154.182 C 114.800 153.622,114.358 152.722,113.818 152.182 C 113.278 151.642,112.378 151.200,111.818 151.200 C 110.999 151.200,110.800 151.005,110.800 150.200 C 110.800 149.223,110.731 149.200,107.828 149.200 C 105.050 149.200,104.847 149.141,104.728 148.300 C 104.608 147.453,104.365 147.387,100.600 147.177 C 97.535 147.007,97.178 146.937,99.071 146.877 C 101.427 146.804,102.800 146.175,102.800 145.171 C 102.800 144.967,104.150 144.800,105.800 144.800 C 108.733 144.800,108.800 144.778,108.800 143.800 L 108.800 142.800 112.800 142.800 L 116.800 142.800 116.800 141.800 L 116.800 140.800 121.800 140.800 L 126.800 140.800 126.800 139.800 L 126.800 138.800 132.800 138.800 L 138.800 138.800 138.800 137.800 C 138.800 136.817,138.853 136.800,142.000 136.800 L 145.200 136.800 145.200 140.000 M35.200 151.800 C 35.200 152.778,35.267 152.800,38.200 152.800 C 41.133 152.800,41.200 152.822,41.200 153.800 C 41.200 154.733,41.333 154.800,43.200 154.800 C 45.067 154.800,45.200 154.867,45.200 155.800 C 45.200 156.733,45.333 156.800,47.200 156.800 C 49.067 156.800,49.200 156.867,49.200 157.800 C 49.200 158.775,49.276 158.801,52.300 158.860 C 54.005 158.893,54.905 158.995,54.300 159.087 C 53.447 159.216,53.200 159.472,53.200 160.227 C 53.200 160.998,52.993 161.200,52.200 161.200 C 51.400 161.200,51.200 161.400,51.200 162.200 C 51.200 163.044,51.013 163.200,50.000 163.200 C 48.987 163.200,48.800 163.044,48.800 162.200 L 48.800 161.200 44.429 161.200 C 40.243 161.200,40.025 161.158,39.271 160.200 C 38.565 159.302,38.197 159.200,35.661 159.200 C 33.181 159.200,32.714 159.078,31.836 158.200 C 31.286 157.650,30.378 157.200,29.818 157.200 C 28.999 157.200,28.800 157.005,28.800 156.200 C 28.800 155.400,28.600 155.200,27.800 155.200 C 27.000 155.200,26.800 155.000,26.800 154.200 C 26.800 153.400,26.600 153.200,25.800 153.200 C 24.956 153.200,24.800 153.013,24.800 152.000 L 24.800 150.800 30.000 150.800 L 35.200 150.800 35.200 151.800 M87.277 155.799 L 87.154 160.800 90.977 160.800 C 94.788 160.800,94.800 160.797,94.800 159.800 C 94.800 158.428,96.813 158.351,97.405 159.700 C 97.778 160.550,98.062 160.606,102.500 160.713 L 107.200 160.825 107.200 161.813 C 107.200 162.586,107.406 162.800,108.153 162.800 C 108.782 162.800,109.181 163.083,109.324 163.630 C 109.443 164.086,109.914 164.557,110.370 164.676 C 111.687 165.021,111.540 167.200,110.200 167.200 C 109.400 167.200,109.200 167.400,109.200 168.200 L 109.200 169.200 105.200 169.200 C 101.216 169.200,101.200 169.204,101.200 170.186 C 101.200 171.158,101.147 171.173,97.300 171.286 C 93.600 171.394,93.393 171.446,93.272 172.300 C 93.153 173.141,92.950 173.200,90.172 173.200 C 87.283 173.200,87.200 173.228,87.200 174.182 C 87.200 175.115,87.068 175.169,84.500 175.282 C 82.143 175.385,81.750 175.514,81.405 176.300 C 81.075 177.052,80.697 177.200,79.105 177.200 C 77.340 177.200,77.200 177.273,77.200 178.200 C 77.200 179.133,77.067 179.200,75.200 179.200 C 73.333 179.200,73.200 179.267,73.200 180.200 C 73.200 181.133,73.067 181.200,71.200 181.200 C 69.346 181.200,69.200 181.271,69.200 182.177 C 69.200 183.040,69.002 183.168,67.500 183.277 C 66.187 183.372,65.710 183.605,65.405 184.300 C 65.163 184.852,64.660 185.200,64.105 185.200 C 63.406 185.200,63.200 185.428,63.200 186.200 C 63.200 187.000,63.000 187.200,62.200 187.200 C 61.400 187.200,61.200 187.400,61.200 188.200 C 61.200 189.000,61.000 189.200,60.200 189.200 C 59.400 189.200,59.200 189.400,59.200 190.200 C 59.200 191.000,59.000 191.200,58.200 191.200 C 57.400 191.200,57.200 191.400,57.200 192.200 C 57.200 193.000,57.000 193.200,56.200 193.200 C 55.400 193.200,55.200 193.400,55.200 194.200 C 55.200 194.993,54.998 195.200,54.227 195.200 C 53.472 195.200,53.216 195.447,53.087 196.300 C 52.995 196.905,52.893 193.665,52.860 189.100 L 52.800 180.800 53.800 180.800 C 54.775 180.800,54.800 180.727,54.800 177.895 C 54.800 175.266,54.886 174.952,55.700 174.595 C 56.396 174.290,56.628 173.813,56.723 172.495 C 56.807 171.334,57.158 170.478,57.823 169.813 C 58.360 169.276,58.800 168.378,58.800 167.818 C 58.800 166.999,58.995 166.800,59.800 166.800 C 60.600 166.800,60.800 166.600,60.800 165.800 C 60.800 165.000,61.000 164.800,61.800 164.800 C 62.600 164.800,62.800 164.600,62.800 163.800 C 62.800 162.867,62.933 162.800,64.800 162.800 C 66.714 162.800,66.800 162.753,66.806 161.700 L 66.812 160.600 67.318 161.600 C 67.772 162.499,68.066 162.600,70.212 162.600 L 72.600 162.600 72.722 160.700 C 72.862 158.516,74.986 157.684,75.272 159.700 C 75.380 160.462,75.645 160.600,77.000 160.600 L 78.600 160.600 78.722 158.700 C 78.832 156.985,78.939 156.800,79.822 156.800 C 80.599 156.800,80.800 156.594,80.800 155.800 C 80.800 155.000,81.000 154.800,81.800 154.800 C 82.600 154.800,82.800 154.600,82.800 153.800 C 82.800 152.867,82.933 152.800,84.800 152.800 C 86.667 152.800,86.800 152.733,86.800 151.800 C 86.800 151.250,86.935 150.800,87.100 150.799 C 87.265 150.799,87.345 153.049,87.277 155.799 M27.132 166.800 C 28.696 166.800,29.076 166.950,29.405 167.700 C 29.766 168.522,30.107 168.610,33.370 168.717 C 36.568 168.821,37.034 168.935,37.850 169.817 C 38.617 170.643,39.131 170.800,41.081 170.800 L 43.400 170.800 43.291 186.635 L 43.182 202.471 44.177 203.253 C 45.105 203.983,45.180 204.312,45.286 208.118 C 45.392 211.914,45.463 212.228,46.300 212.595 C 47.052 212.925,47.200 213.303,47.200 214.895 C 47.200 216.660,47.273 216.800,48.200 216.800 C 49.000 216.800,49.200 217.000,49.200 217.800 C 49.200 218.600,49.400 218.800,50.200 218.800 C 51.000 218.800,51.200 219.000,51.200 219.800 C 51.200 220.600,51.400 220.800,52.200 220.800 C 53.003 220.800,53.200 220.999,53.200 221.810 L 53.200 222.820 59.700 222.710 C 66.007 222.603,66.212 222.573,66.595 221.700 C 66.864 221.087,67.333 220.800,68.067 220.800 C 68.880 220.800,69.176 221.021,69.272 221.700 C 69.393 222.549,69.627 222.611,73.400 222.800 C 75.753 222.918,77.017 223.111,76.470 223.270 C 75.959 223.419,75.443 223.914,75.324 224.370 C 75.129 225.115,74.806 225.200,72.153 225.200 C 69.284 225.200,69.200 225.228,69.200 226.182 C 69.200 227.125,69.081 227.170,66.300 227.282 C 63.639 227.390,63.389 227.474,63.272 228.300 C 63.180 228.951,62.876 229.200,62.172 229.200 C 61.402 229.200,61.200 229.408,61.200 230.200 C 61.200 231.000,61.000 231.200,60.200 231.200 C 59.400 231.200,59.200 231.400,59.200 232.200 C 59.200 233.000,59.000 233.200,58.200 233.200 C 57.400 233.200,57.200 233.400,57.200 234.200 C 57.200 235.000,57.000 235.200,56.200 235.200 C 55.428 235.200,55.200 235.406,55.200 236.105 C 55.200 236.660,54.852 237.163,54.300 237.405 C 53.605 237.710,53.372 238.187,53.277 239.500 C 53.168 241.002,53.040 241.200,52.177 241.200 C 51.271 241.200,51.200 241.346,51.200 243.200 C 51.200 245.156,51.173 245.200,50.000 245.200 L 48.800 245.200 48.800 240.000 L 48.800 234.800 49.800 234.800 C 50.727 234.800,50.800 234.660,50.800 232.895 C 50.800 231.303,50.948 230.925,51.700 230.595 C 53.126 229.969,53.320 221.200,51.908 221.200 C 51.339 221.200,50.839 220.857,50.595 220.300 C 50.290 219.605,49.813 219.372,48.500 219.277 C 46.998 219.168,46.800 219.040,46.800 218.177 C 46.800 217.402,46.594 217.200,45.800 217.200 C 45.000 217.200,44.800 217.000,44.800 216.200 C 44.800 215.400,44.600 215.200,43.800 215.200 C 43.000 215.200,42.800 215.000,42.800 214.200 C 42.800 213.400,42.600 213.200,41.800 213.200 C 41.000 213.200,40.800 213.000,40.800 212.200 C 40.800 211.400,40.600 211.200,39.800 211.200 C 39.000 211.200,38.800 211.000,38.800 210.200 C 38.800 209.400,38.600 209.200,37.800 209.200 C 37.000 209.200,36.800 209.000,36.800 208.200 C 36.800 207.406,36.599 207.200,35.822 207.200 C 34.939 207.200,34.832 207.015,34.722 205.300 C 34.618 203.679,34.468 203.381,33.700 203.272 C 33.049 203.180,32.800 202.876,32.800 202.172 C 32.800 201.402,32.592 201.200,31.800 201.200 C 30.867 201.200,30.800 201.067,30.800 199.200 C 30.800 197.343,30.730 197.200,29.818 197.200 C 28.875 197.200,28.830 197.081,28.718 194.300 C 28.610 191.639,28.526 191.389,27.700 191.272 C 26.859 191.153,26.800 190.950,26.800 188.172 C 26.800 185.269,26.777 185.200,25.800 185.200 L 24.800 185.200 24.860 174.900 C 24.893 169.235,24.995 165.095,25.087 165.700 C 25.241 166.720,25.389 166.800,27.132 166.800 M87.200 187.773 C 87.200 188.528,87.447 188.784,88.300 188.913 C 88.905 189.005,88.365 189.107,87.100 189.140 L 84.800 189.200 84.800 188.000 C 84.800 186.933,84.933 186.800,86.000 186.800 C 87.005 186.800,87.200 186.959,87.200 187.773 M161.338 187.817 C 160.991 188.721,161.302 188.769,162.100 187.933 C 162.692 187.313,162.706 187.200,162.187 187.200 C 161.851 187.200,161.468 187.478,161.338 187.817 M134.806 209.451 C 134.803 209.699,135.078 210.133,135.418 210.415 C 135.758 210.697,135.940 211.179,135.823 211.485 C 135.705 211.791,135.772 211.941,135.970 211.818 C 136.169 211.695,136.423 211.821,136.534 212.098 C 136.646 212.374,136.751 212.195,136.768 211.700 C 136.786 211.205,136.620 210.800,136.400 210.800 C 136.180 210.800,136.045 210.665,136.100 210.500 C 136.155 210.335,136.040 210.170,135.845 210.134 C 135.649 210.098,135.337 209.828,135.151 209.534 C 134.947 209.213,134.810 209.180,134.806 209.451 M136.400 214.024 C 136.400 214.257,136.201 214.324,135.957 214.174 C 135.662 213.991,135.601 214.173,135.775 214.720 C 135.953 215.283,135.811 215.666,135.321 215.940 C 134.928 216.160,134.725 216.458,134.870 216.603 C 135.285 217.018,136.800 215.288,136.800 214.400 C 136.800 213.960,136.710 213.600,136.600 213.600 C 136.490 213.600,136.400 213.791,136.400 214.024 M141.206 216.211 C 141.197 216.821,142.383 218.400,142.851 218.400 C 143.073 218.400,143.198 217.995,143.128 217.500 C 143.058 217.005,142.730 216.600,142.400 216.600 C 142.070 216.600,141.668 216.420,141.506 216.200 C 141.312 215.936,141.210 215.940,141.206 216.211 M328.800 223.600 C 328.800 223.820,329.070 224.000,329.400 224.000 C 329.777 224.000,330.000 224.380,330.000 225.024 C 330.000 225.587,330.169 225.943,330.375 225.815 C 330.873 225.508,330.553 223.944,329.909 223.536 C 329.216 223.096,328.800 223.120,328.800 223.600 M219.900 226.033 C 219.515 226.455,219.200 226.896,219.200 227.014 C 219.200 227.448,220.714 226.402,220.940 225.811 C 221.256 224.988,220.757 225.095,219.900 226.033 M203.043 231.833 C 202.622 232.930,202.772 233.200,203.800 233.200 C 204.865 233.200,205.114 232.474,204.320 231.680 C 203.675 231.035,203.333 231.076,203.043 231.833 M206.400 231.557 C 206.400 231.827,206.192 231.919,205.938 231.762 C 205.665 231.593,205.584 231.651,205.741 231.904 C 205.886 232.139,205.779 232.423,205.502 232.534 C 205.189 232.660,205.170 232.749,205.451 232.768 C 206.034 232.809,206.993 231.660,206.657 231.324 C 206.516 231.182,206.400 231.287,206.400 231.557 M125.600 233.200 C 126.043 233.486,126.062 233.589,125.671 233.594 C 125.264 233.599,125.281 233.738,125.743 234.200 C 126.402 234.860,126.979 235.013,126.621 234.434 C 126.497 234.233,126.621 233.977,126.898 233.866 C 127.287 233.709,127.282 233.656,126.876 233.632 C 126.588 233.614,126.464 233.420,126.600 233.200 C 126.738 232.977,126.439 232.803,125.924 232.806 C 125.181 232.811,125.117 232.888,125.600 233.200 M230.800 233.800 C 230.800 234.865,231.526 235.114,232.320 234.320 C 233.114 233.526,232.865 232.800,231.800 232.800 C 231.000 232.800,230.800 233.000,230.800 233.800 M195.600 243.200 C 196.043 243.486,196.062 243.589,195.671 243.594 C 195.264 243.599,195.281 243.738,195.743 244.200 C 196.402 244.860,196.979 245.013,196.621 244.434 C 196.497 244.233,196.621 243.977,196.898 243.866 C 197.287 243.709,197.282 243.656,196.876 243.632 C 196.588 243.614,196.464 243.420,196.600 243.200 C 196.738 242.977,196.439 242.803,195.924 242.806 C 195.181 242.811,195.117 242.888,195.600 243.200 M329.700 246.544 C 329.205 246.789,328.800 247.307,328.800 247.695 C 328.800 248.991,329.944 248.331,330.525 246.700 C 330.663 246.315,330.736 246.022,330.687 246.049 C 330.639 246.076,330.195 246.299,329.700 246.544 M276.000 250.951 C 276.000 251.034,276.270 251.326,276.600 251.600 C 277.091 252.008,277.200 251.980,277.200 251.449 C 277.200 251.092,276.930 250.800,276.600 250.800 C 276.270 250.800,276.000 250.868,276.000 250.951 M327.500 251.633 C 327.115 252.055,326.800 252.496,326.800 252.614 C 326.800 253.048,328.314 252.002,328.540 251.411 C 328.856 250.588,328.357 250.695,327.500 251.633 M139.600 253.177 C 139.600 254.518,141.233 254.748,150.352 254.692 L 159.400 254.636 151.000 254.406 L 142.600 254.175 150.876 254.088 C 155.428 254.039,159.236 253.865,159.339 253.700 C 159.548 253.363,143.338 253.490,142.400 253.832 C 141.568 254.136,141.381 254.039,141.518 253.374 C 141.595 252.995,141.289 252.800,140.618 252.800 C 140.058 252.800,139.600 252.970,139.600 253.177 M165.600 253.191 C 165.600 253.997,167.474 254.705,169.600 254.701 C 171.690 254.698,171.720 254.684,170.200 254.422 L 168.600 254.147 170.000 253.937 L 171.400 253.728 169.924 253.664 C 169.112 253.629,168.334 253.783,168.196 254.007 C 167.827 254.604,167.197 254.074,167.460 253.387 C 167.623 252.963,167.395 252.800,166.643 252.800 C 166.069 252.800,165.600 252.976,165.600 253.191 M188.000 253.118 C 188.000 253.293,187.408 253.476,186.683 253.525 C 185.959 253.574,184.924 253.715,184.383 253.839 C 183.843 253.963,183.175 254.080,182.900 254.099 C 182.066 254.156,182.341 254.800,183.200 254.800 C 183.640 254.800,184.000 254.584,184.000 254.320 C 184.000 253.947,184.107 253.947,184.480 254.320 C 184.744 254.584,185.509 254.776,186.180 254.747 C 187.400 254.695,187.399 254.695,186.000 254.428 L 184.600 254.162 186.089 253.962 C 187.091 253.828,187.642 253.932,187.776 254.282 C 188.026 254.933,189.682 254.958,190.320 254.320 C 191.225 253.415,190.853 252.800,189.400 252.800 C 188.630 252.800,188.000 252.943,188.000 253.118 M199.600 253.191 C 199.600 254.536,207.888 255.553,208.661 254.302 C 208.810 254.061,208.735 253.993,208.489 254.145 C 208.251 254.292,207.942 254.230,207.804 254.007 C 207.666 253.783,206.404 253.600,205.000 253.600 C 203.596 253.600,202.334 253.783,202.196 254.007 C 201.827 254.604,201.197 254.074,201.460 253.387 C 201.623 252.963,201.395 252.800,200.643 252.800 C 200.069 252.800,199.600 252.976,199.600 253.191 M227.534 253.151 C 227.828 253.337,228.098 253.649,228.134 253.845 C 228.170 254.040,228.335 254.155,228.500 254.100 C 228.665 254.045,228.800 254.172,228.800 254.382 C 228.800 255.057,242.442 254.859,243.500 254.169 C 244.826 253.304,244.598 252.796,242.900 252.832 C 242.075 252.849,241.626 252.954,241.902 253.066 C 243.278 253.620,241.534 253.781,236.139 253.598 C 232.873 253.487,229.972 253.556,229.692 253.753 C 229.366 253.983,228.927 253.877,228.461 253.455 C 228.063 253.095,227.571 252.803,227.369 252.806 C 227.166 252.809,227.240 252.965,227.534 253.151 M247.534 253.151 C 247.828 253.337,248.098 253.649,248.134 253.845 C 248.170 254.040,248.335 254.155,248.500 254.100 C 248.665 254.045,248.800 254.161,248.800 254.357 C 248.800 254.553,249.925 254.703,251.300 254.689 C 252.675 254.675,253.170 254.592,252.400 254.504 C 250.473 254.282,250.048 253.737,251.900 253.862 L 253.400 253.963 251.800 253.623 C 250.783 253.408,250.015 253.434,249.692 253.697 C 249.331 253.991,248.976 253.921,248.461 253.455 C 248.063 253.095,247.571 252.803,247.369 252.806 C 247.166 252.809,247.240 252.965,247.534 253.151 M271.549 253.500 C 271.040 254.149,271.058 254.156,271.800 253.600 C 272.539 253.046,272.559 253.052,272.060 253.689 C 271.592 254.286,271.377 254.309,270.460 253.861 C 269.780 253.529,268.970 253.455,268.200 253.654 L 267.000 253.965 268.285 253.854 C 269.067 253.786,269.649 253.950,269.772 254.272 C 270.216 255.429,272.800 254.617,272.800 253.320 C 272.800 252.587,272.197 252.674,271.549 253.500 M339.400 253.200 C 339.264 253.420,338.578 253.627,337.876 253.660 C 336.633 253.718,336.629 253.724,337.724 253.889 C 338.342 253.982,339.152 253.820,339.524 253.529 C 340.126 253.058,340.142 253.074,339.670 253.677 C 339.379 254.049,338.569 254.427,337.870 254.516 C 337.053 254.621,337.313 254.687,338.600 254.701 C 341.188 254.730,341.909 254.517,342.414 253.573 C 342.874 252.715,339.925 252.350,339.400 253.200 M361.534 253.151 C 361.828 253.337,362.098 253.649,362.134 253.845 C 362.170 254.040,362.335 254.155,362.500 254.100 C 362.665 254.045,362.800 254.165,362.800 254.367 C 362.800 254.577,365.504 254.714,369.100 254.686 L 375.400 254.638 370.207 254.506 C 363.246 254.330,363.030 253.800,369.919 253.800 C 373.867 253.800,375.489 253.940,375.720 254.300 C 376.127 254.936,377.692 254.948,378.320 254.320 C 379.225 253.415,378.853 252.800,377.400 252.800 C 376.630 252.800,376.000 252.973,376.000 253.185 C 376.000 253.416,373.610 253.559,370.030 253.543 C 366.747 253.528,363.855 253.642,363.605 253.797 C 363.354 253.952,362.832 253.791,362.443 253.439 C 362.055 253.088,361.571 252.803,361.369 252.806 C 361.166 252.809,361.240 252.965,361.534 253.151 M161.592 253.810 C 161.314 254.145,161.197 254.531,161.333 254.667 C 161.624 254.957,162.800 254.063,162.800 253.551 C 162.800 253.000,162.148 253.140,161.592 253.810 M263.200 253.551 C 263.200 254.343,264.341 254.701,266.800 254.680 C 268.230 254.668,268.860 254.585,268.200 254.494 C 267.540 254.403,266.798 254.162,266.551 253.958 C 266.304 253.753,265.827 253.692,265.491 253.820 C 265.156 253.949,264.762 253.862,264.617 253.627 C 264.300 253.114,263.200 253.055,263.200 253.551 M115.841 254.066 C 115.931 254.212,115.779 254.410,115.502 254.505 C 115.226 254.601,116.080 254.681,117.400 254.683 C 119.537 254.686,119.625 254.657,118.200 254.417 L 116.600 254.147 118.000 253.926 C 119.179 253.740,119.106 253.713,117.538 253.753 C 116.515 253.779,115.751 253.920,115.841 254.066 M236.232 254.311 C 233.390 254.374,230.924 254.284,230.751 254.112 C 230.579 253.941,232.904 253.889,235.919 253.998 L 241.400 254.197 236.232 254.311 M349.841 254.066 C 349.931 254.212,349.779 254.410,349.502 254.505 C 349.226 254.601,350.080 254.681,351.400 254.683 C 353.537 254.686,353.625 254.657,352.200 254.417 L 350.600 254.147 352.000 253.926 C 353.179 253.740,353.106 253.713,351.538 253.753 C 350.515 253.779,349.751 253.920,349.841 254.066 M206.307 254.286 C 205.706 254.377,204.626 254.379,203.907 254.290 C 203.188 254.201,203.680 254.126,205.000 254.124 C 206.320 254.122,206.908 254.195,206.307 254.286 " stroke="none" fill="#1464b4" fill-rule="evenodd"></path></g></svg>